<svg viewBox="0 0 323.48 323.48" xmlns="http://www.w3.org/2000/svg"><g fill-rule="evenodd" stroke-miterlimit="10" stroke-width="18"><path d="m161.74 314.48a152.74 152.74 0 1 1 152.74-152.74 152.74 152.74 0 0 1 -152.74 152.74zm0-17a135.77 135.77 0 1 0 -135.74-135.74 135.77 135.77 0 0 0 135.74 135.77z" fill="#f7f7f7" stroke="#f7f7f7"/><path d="m161.74 9a8.49 8.49 0 1 0 0 17 135.77 135.77 0 1 1 -127.4 182.79 8.49 8.49 0 0 0 -15.92 5.88 152.76 152.76 0 1 0 143.32-205.67z" fill="#77c285" stroke="#77c285"/></g></svg>